<svg version="1.1" xmlns="http://www.w3.org/2000/svg" xmlns:xlink="http://www.w3.org/1999/xlink" width="117.75005" height="55.8211" viewBox="0,0,117.75005,55.8211"><g transform="translate(-170.71984,-154.17833)"><g data-paper-data="{&quot;isPaintingLayer&quot;:true}" fill-rule="nonzero" stroke-linejoin="miter" stroke-miterlimit="10" stroke-dasharray="" stroke-dashoffset="0" style="mix-blend-mode: normal"><text transform="translate(232.58863,189.5637) scale(0.51126,0.51126)" font-size="40" xml:space="preserve" fill="#7d0000" fill-rule="nonzero" stroke="none" stroke-width="1" stroke-linecap="butt" stroke-linejoin="miter" stroke-miterlimit="10" stroke-dasharray="" stroke-dashoffset="0" font-family="Sans Serif" font-weight="normal" text-anchor="start" style="mix-blend-mode: normal"><tspan x="0" dy="0">Error!</tspan></text><path d="M170.71984,209.99943v-55.8211h117.37886v55.8211z" fill="none" stroke="none" stroke-width="0" stroke-linecap="butt"/><path d="" data-paper-data="{&quot;index&quot;:null}" fill="none" stroke="#000000" stroke-width="1.5" stroke-linecap="round"/><g><path d="M230.65414,190.72367c0,13.95756 -12.58469,18.45754 -28.14394,18.45754c-15.55925,0 -28.14394,-4.49998 -28.14394,-18.45754c0,-6.55929 1.8305,-14.11011 5.87285,-20.21177l-3.27965,-11.05927c-0.61017,-2.05931 1.52542,-4.04235 3.50846,-3.20338l10.90673,4.57625c3.20338,-1.44915 6.86438,-2.28813 11.13554,-2.28813c4.1949,0 7.8559,0.91525 11.05927,2.3644l10.983,-4.57625c1.98304,-0.83898 4.11863,1.14406 3.50846,3.20338l-3.35592,11.21181c3.96608,6.0254 5.87285,13.49994 5.94913,19.98296z" fill="#ff7319" stroke="none" stroke-width="1" stroke-linecap="butt"/><path d="M224.47621,199.57109c0,7.322 -9.83894,9.6864 -22.04227,9.6864c-12.20333,0 -22.04227,-2.3644 -22.04227,-9.6864c0,-7.322 6.55929,-16.85586 22.04227,-16.85586c15.1779,0 22.04227,9.53385 22.04227,16.85586z" fill="#ffffff" stroke="none" stroke-width="1" stroke-linecap="butt"/><path d="M199.99327,186.07115c0,-0.99152 1.06779,-1.2966 2.44067,-1.2966c1.37288,0 2.44067,0.30508 2.44067,1.2966c0,0.99152 -0.76271,2.21185 -2.44067,2.21185c-1.67796,0 -2.44067,-1.22033 -2.44067,-2.21185z" fill="#945600" stroke="#000000" stroke-width="1.5" stroke-linecap="butt"/><path d="M198.23904,193.39315c2.28813,0 4.1949,-1.90677 4.1949,-4.1949c0,-0.15254 0,-0.15254 0,-0.15254c0,-0.15254 0,-0.22881 0,-0.22881c0,0 0,0.07627 0,0.22881c0,0 0,0 0,0.15254c0,2.3644 1.90677,4.1949 4.1949,4.1949" fill="none" stroke="#000000" stroke-width="2.5" stroke-linecap="round"/><path d="M195.289,177.68135c0,-1.30582 1.05858,-2.3644 2.3644,-2.3644c1.30582,0 2.3644,1.05858 2.3644,2.3644c0,1.30582 -1.05858,2.3644 -2.3644,2.3644c-1.30582,0 -2.3644,-1.05858 -2.3644,-2.3644z" fill="#000000" stroke="none" stroke-width="1" stroke-linecap="butt"/><path d="M205.05166,177.68135c0,-1.30582 1.05858,-2.3644 2.3644,-2.3644c1.30582,0 2.3644,1.05858 2.3644,2.3644c0,1.30582 -1.05858,2.3644 -2.3644,2.3644c-1.30582,0 -2.3644,-1.05858 -2.3644,-2.3644z" fill="#000000" stroke="none" stroke-width="1" stroke-linecap="butt"/><path d="M185.34927,165.0204c-1.60169,1.37288 -2.89829,2.66948 -4.11863,4.65252l-2.97456,-10.29656c-0.22881,-1.22033 0.91525,-2.28813 2.13558,-1.90677l9.83894,4.11863c-2.21185,0.91525 -3.50846,2.13558 -4.88133,3.43219z" fill="#77500c" stroke="none" stroke-width="1" stroke-linecap="butt"/><path d="M214.94235,161.58821l9.83894,-4.11863c1.22033,-0.38135 2.3644,0.68644 2.13558,1.90677l-2.89829,10.29656c-1.14406,-1.98304 -2.51694,-3.27965 -4.04235,-4.65252c-1.52542,-1.2966 -2.82202,-2.51694 -5.03388,-3.43219z" fill="#77500c" stroke="none" stroke-width="1" stroke-linecap="butt"/><path d="M198.87696,172.92134c0,-0.15254 0,-0.15254 0,-0.15254c0,-0.15254 0,-0.22881 0,-0.22881c0,0 0,0.07627 0,0.22881c0,0 0,0 0,0.15254c0,2.28813 -1.90677,4.1949 -4.1949,4.1949" fill="none" stroke="#000000" stroke-width="2.5" stroke-linecap="round"/><path d="M210.32522,176.98518c-2.28813,0 -4.1949,-1.90677 -4.1949,-4.1949c0,-0.15254 0,-0.15254 0,-0.15254c0,-0.15254 0,-0.22881 0,-0.22881c0,0 0,0.07627 0,0.22881c0,0 0,0 0,0.15254" data-paper-data="{&quot;index&quot;:null}" fill="none" stroke="#000000" stroke-width="2.5" stroke-linecap="round"/></g></g></g></svg>